<svg width="21" height="20" viewBox="0 0 21 20" fill="none" xmlns="http://www.w3.org/2000/svg">
<path fill-rule="evenodd" clip-rule="evenodd" d="M13.3784 9.88768C12.6589 10.3684 11.813 10.625 10.9478 10.625C9.78784 10.6237 8.67581 10.1623 7.85562 9.34213C7.03544 8.52195 6.57408 7.40992 6.57275 6.25C6.57275 5.38471 6.82934 4.53885 7.31007 3.81938C7.79081 3.09992 8.47409 2.53916 9.27351 2.20803C10.0729 1.8769 10.9526 1.79026 11.8013 1.95907C12.6499 2.12788 13.4295 2.54456 14.0413 3.15641C14.6532 3.76826 15.0699 4.54781 15.2387 5.39648C15.4075 6.24515 15.3209 7.12482 14.9897 7.92424C14.6586 8.72367 14.0978 9.40695 13.3784 9.88768ZM12.6839 3.65166C12.17 3.30828 11.5658 3.125 10.9478 3.125C10.1193 3.12599 9.32498 3.45555 8.73914 4.04139C8.15331 4.62723 7.82375 5.4215 7.82275 6.25C7.82275 6.86807 8.00603 7.47226 8.34941 7.98616C8.69279 8.50006 9.18085 8.9006 9.75187 9.13713C10.3229 9.37365 10.9512 9.43553 11.5574 9.31496C12.1636 9.19438 12.7204 8.89675 13.1575 8.45971C13.5945 8.02267 13.8921 7.46585 14.0127 6.85966C14.1333 6.25347 14.0714 5.62514 13.8349 5.05412C13.5984 4.4831 13.1978 3.99504 12.6839 3.65166ZM15.5798 9.97445C15.6562 10.0067 15.7254 10.0538 15.7834 10.1131C16.4318 10.7507 16.9461 11.5115 17.2964 12.3507C17.6466 13.1899 17.8256 14.0906 17.8228 15C17.8228 17.03 14.2809 18.125 10.9478 18.125C7.61466 18.125 4.07278 17.03 4.07278 15C4.07015 14.0967 4.24672 13.2019 4.59227 12.3674C4.93783 11.5328 5.44551 10.7751 6.08591 10.1381C6.14356 10.0784 6.21253 10.0308 6.28878 9.99805C6.36503 9.9653 6.44705 9.94806 6.53003 9.94733C6.61302 9.94661 6.69532 9.96243 6.77213 9.99385C6.84894 10.0253 6.91872 10.0717 6.97741 10.1304C7.03609 10.1891 7.0825 10.2588 7.11392 10.3356C7.14535 10.4125 7.16116 10.4948 7.16044 10.5777C7.15972 10.6607 7.14248 10.7427 7.10972 10.819C7.07697 10.8952 7.02935 10.9642 6.96966 11.0219C6.44579 11.5429 6.03049 12.1627 5.7478 12.8453C5.46511 13.528 5.32065 14.2599 5.32278 14.9987C5.32278 15.7637 7.51403 16.875 10.9478 16.875C14.3815 16.875 16.5728 15.7644 16.5728 15C16.575 14.2561 16.4285 13.5192 16.1421 12.8326C15.8556 12.1461 15.4349 11.5236 14.9047 11.0019C14.8447 10.9445 14.7968 10.8758 14.7637 10.7998C14.7306 10.7237 14.7129 10.6419 14.7118 10.5589C14.7106 10.476 14.726 10.3937 14.757 10.3167C14.788 10.2398 14.834 10.1698 14.8923 10.1108C14.9506 10.0519 15.0201 10.0051 15.0967 9.97322C15.1732 9.94136 15.2554 9.92506 15.3383 9.92527C15.4213 9.92548 15.5033 9.9422 15.5798 9.97445Z" fill="#64AE4D"/>
<path d="M10.9478 10.625L10.9475 10.875H10.9478V10.625ZM13.3784 9.88768L13.2395 9.67981L13.3784 9.88768ZM6.57275 6.25H6.32275L6.32275 6.25029L6.57275 6.25ZM7.31007 3.81938L7.51794 3.95827L7.31007 3.81938ZM9.27351 2.20803L9.17784 1.97706L9.27351 2.20803ZM11.8013 1.95907L11.7525 2.20426L11.8013 1.95907ZM14.0413 3.15641L14.2181 2.97963V2.97963L14.0413 3.15641ZM15.2387 5.39648L15.4839 5.34771V5.34771L15.2387 5.39648ZM14.9897 7.92424L14.7588 7.82857L14.7588 7.82857L14.9897 7.92424ZM10.9478 3.125V2.875L10.9475 2.875L10.9478 3.125ZM12.6839 3.65166L12.545 3.85953L12.6839 3.65166ZM8.73914 4.04139L8.56236 3.86461V3.86461L8.73914 4.04139ZM7.82275 6.25L7.57275 6.2497V6.25H7.82275ZM9.75187 9.13713L9.84754 8.90616H9.84754L9.75187 9.13713ZM13.1575 8.45971L13.3342 8.63649L13.1575 8.45971ZM14.0127 6.85966L14.2579 6.90843V6.90843L14.0127 6.85966ZM15.7834 10.1131L15.6047 10.288L15.6081 10.2914L15.7834 10.1131ZM15.5798 9.97445L15.4825 10.2048L15.4825 10.2048L15.5798 9.97445ZM17.8228 15L17.5728 14.9992V15H17.8228ZM4.07278 15H4.32278L4.32278 14.9993L4.07278 15ZM4.59227 12.3674L4.82326 12.463L4.59227 12.3674ZM6.08591 10.1381L6.26225 10.3154L6.26573 10.3118L6.08591 10.1381ZM6.77213 9.99385L6.8668 9.76247H6.8668L6.77213 9.99385ZM6.97741 10.1304L6.80063 10.3071L6.80063 10.3071L6.97741 10.1304ZM7.11392 10.3356L7.34531 10.241L7.3453 10.241L7.11392 10.3356ZM7.16044 10.5777L7.41043 10.5799V10.5799L7.16044 10.5777ZM7.10972 10.819L6.88002 10.7203L6.88002 10.7203L7.10972 10.819ZM6.96966 11.0219L6.79596 10.842L6.79336 10.8446L6.96966 11.0219ZM5.7478 12.8453L5.97878 12.941L5.7478 12.8453ZM5.32278 14.9987H5.57278L5.57278 14.998L5.32278 14.9987ZM16.5728 15L16.3228 14.9993V15H16.5728ZM16.1421 12.8326L16.3728 12.7364L16.1421 12.8326ZM14.9047 11.0019L15.08 10.8237L15.0775 10.8212L14.9047 11.0019ZM14.7637 10.7998L14.9929 10.7L14.9929 10.7L14.7637 10.7998ZM14.7118 10.5589L14.9618 10.5555V10.5555L14.7118 10.5589ZM14.757 10.3167L14.5251 10.2233L14.5251 10.2233L14.757 10.3167ZM14.8923 10.1108L14.7145 9.93506L14.7145 9.93506L14.8923 10.1108ZM15.0967 9.97322L15.0006 9.7424L15.0006 9.7424L15.0967 9.97322ZM15.3383 9.92527L15.339 9.67527H15.339L15.3383 9.92527ZM10.9478 10.875C11.8625 10.875 12.7567 10.6038 13.5173 10.0955L13.2395 9.67981C12.5611 10.1331 11.7636 10.375 10.9478 10.375V10.875ZM7.67885 9.51891C8.54585 10.3859 9.72135 10.8736 10.9475 10.875L10.948 10.375C9.85433 10.3738 8.80577 9.93873 8.0324 9.16536L7.67885 9.51891ZM6.32275 6.25029C6.32415 7.47641 6.81185 8.65191 7.67885 9.51891L8.0324 9.16536C7.25903 8.39198 6.824 7.34343 6.82275 6.24972L6.32275 6.25029ZM7.10221 3.68049C6.59401 4.44107 6.32275 5.33526 6.32275 6.25H6.82275C6.82275 5.43415 7.06468 4.63663 7.51794 3.95827L7.10221 3.68049ZM9.17784 1.97706C8.33273 2.32711 7.61041 2.91991 7.10221 3.68049L7.51794 3.95827C7.9712 3.27992 8.61544 2.75121 9.36918 2.439L9.17784 1.97706ZM11.85 1.71387C10.9529 1.53541 10.023 1.627 9.17784 1.97706L9.36918 2.439C10.1229 2.12679 10.9523 2.0451 11.7525 2.20426L11.85 1.71387ZM14.2181 2.97963C13.5713 2.33282 12.7472 1.89233 11.85 1.71387L11.7525 2.20426C12.5527 2.36343 13.2877 2.75629 13.8646 3.33319L14.2181 2.97963ZM15.4839 5.34771C15.3054 4.45055 14.8649 3.62645 14.2181 2.97963L13.8646 3.33319C14.4415 3.91008 14.8343 4.64508 14.9935 5.44525L15.4839 5.34771ZM15.2207 8.01991C15.5708 7.1748 15.6623 6.24487 15.4839 5.34771L14.9935 5.44525C15.1527 6.24543 15.071 7.07483 14.7588 7.82857L15.2207 8.01991ZM13.5173 10.0955C14.2778 9.58735 14.8706 8.86502 15.2207 8.01991L14.7588 7.82857C14.4465 8.58232 13.9178 9.22655 13.2395 9.67981L13.5173 10.0955ZM10.9478 3.375C11.5164 3.375 12.0722 3.54362 12.545 3.85953L12.8228 3.44379C12.2678 3.07294 11.6153 2.875 10.9478 2.875V3.375ZM8.91592 4.21817C9.45494 3.67914 10.1858 3.37591 10.9481 3.375L10.9475 2.875C10.0528 2.87607 9.19501 3.23197 8.56236 3.86461L8.91592 4.21817ZM8.07275 6.2503C8.07367 5.488 8.37689 4.75719 8.91592 4.21817L8.56236 3.86461C7.92972 4.49726 7.57383 5.35501 7.57275 6.2497L8.07275 6.2503ZM8.55728 7.84727C8.24137 7.37447 8.07275 6.81862 8.07275 6.25H7.57275C7.57275 6.91751 7.77069 7.57004 8.14154 8.12505L8.55728 7.84727ZM9.84754 8.90616C9.3222 8.68855 8.87319 8.32006 8.55728 7.84727L8.14154 8.12505C8.51239 8.68007 9.0395 9.11265 9.6562 9.3681L9.84754 8.90616ZM11.5086 9.06976C10.9509 9.18069 10.3729 9.12376 9.84754 8.90616L9.6562 9.3681C10.2729 9.62354 10.9515 9.69038 11.6062 9.56015L11.5086 9.06976ZM12.9807 8.28293C12.5786 8.68501 12.0663 8.95883 11.5086 9.06976L11.6062 9.56015C12.2609 9.42993 12.8622 9.10849 13.3342 8.63649L12.9807 8.28293ZM13.7675 6.81089C13.6566 7.36858 13.3828 7.88086 12.9807 8.28293L13.3342 8.63649C13.8062 8.16448 14.1277 7.56312 14.2579 6.90843L13.7675 6.81089ZM13.6039 5.14979C13.8215 5.67512 13.8784 6.25319 13.7675 6.81089L14.2579 6.90843C14.3881 6.25375 14.3213 5.57515 14.0658 4.95845L13.6039 5.14979ZM12.545 3.85953C13.0178 4.17544 13.3863 4.62445 13.6039 5.14979L14.0658 4.95845C13.8104 4.34174 13.3778 3.81464 12.8228 3.44379L12.545 3.85953ZM15.9621 9.93825C15.8809 9.85527 15.7839 9.78928 15.677 9.74413L15.4825 10.2048C15.5284 10.2241 15.5699 10.2524 15.6047 10.288L15.9621 9.93825ZM17.5271 12.2544C17.164 11.3845 16.6308 10.5959 15.9587 9.93487L15.6081 10.2914C16.2327 10.9056 16.7283 11.6385 17.0656 12.447L17.5271 12.2544ZM18.0728 15.0008C18.0757 14.0581 17.8901 13.1244 17.5271 12.2544L17.0656 12.447C17.403 13.2555 17.5755 14.1232 17.5728 14.9992L18.0728 15.0008ZM10.9478 18.375C12.637 18.375 14.3895 18.0981 15.7291 17.5554C17.0465 17.0217 18.0728 16.1812 18.0728 15H17.5728C17.5728 15.8488 16.8281 16.5707 15.5413 17.092C14.2767 17.6043 12.5917 17.875 10.9478 17.875V18.375ZM3.82278 15C3.82278 16.1812 4.84904 17.0217 6.16649 17.5554C7.50611 18.0981 9.25854 18.375 10.9478 18.375V17.875C9.3039 17.875 7.61883 17.6043 6.35423 17.092C5.06747 16.5707 4.32278 15.8488 4.32278 15H3.82278ZM4.36129 12.2717C4.00309 13.1368 3.82005 14.0644 3.82278 15.0007L4.32278 14.9993C4.32024 14.1291 4.49035 13.267 4.82326 12.463L4.36129 12.2717ZM5.9096 9.96087C5.24576 10.6212 4.7195 11.4066 4.36129 12.2717L4.82326 12.463C5.15616 11.659 5.64525 10.929 6.26221 10.3154L5.9096 9.96087ZM6.19011 9.76835C6.08335 9.81421 5.9868 9.88087 5.90609 9.96444L6.26573 10.3118C6.30032 10.276 6.3417 10.2474 6.38745 10.2278L6.19011 9.76835ZM6.52786 9.69734C6.41168 9.69835 6.29686 9.72249 6.19011 9.76835L6.38745 10.2278C6.4332 10.2081 6.48241 10.1978 6.5322 10.1973L6.52786 9.69734ZM6.8668 9.76247C6.75926 9.71847 6.64404 9.69633 6.52786 9.69734L6.5322 10.1973C6.582 10.1969 6.63138 10.2064 6.67746 10.2252L6.8668 9.76247ZM7.15418 9.95359C7.07203 9.87144 6.97433 9.80646 6.8668 9.76247L6.67746 10.2252C6.72355 10.2441 6.76542 10.2719 6.80063 10.3071L7.15418 9.95359ZM7.3453 10.241C7.30131 10.1334 7.23634 10.0357 7.15418 9.95359L6.80063 10.3071C6.83584 10.3424 6.86368 10.3842 6.88254 10.4303L7.3453 10.241ZM7.41043 10.5799C7.41144 10.4637 7.3893 10.3485 7.34531 10.241L6.88254 10.4303C6.90139 10.4764 6.91088 10.5258 6.91045 10.5756L7.41043 10.5799ZM7.33942 10.9177C7.38528 10.8109 7.40942 10.6961 7.41043 10.5799L6.91045 10.5756C6.91002 10.6254 6.89967 10.6746 6.88002 10.7203L7.33942 10.9177ZM7.14334 11.2017C7.22691 11.121 7.29357 11.0244 7.33942 10.9177L6.88002 10.7203C6.86036 10.7661 6.8318 10.8075 6.79598 10.842L7.14334 11.2017ZM5.97878 12.941C6.24882 12.2889 6.64553 11.6968 7.14596 11.1991L6.79336 10.8446C6.24605 11.389 5.81217 12.0365 5.51683 12.7497L5.97878 12.941ZM5.57278 14.998C5.57075 14.2922 5.70874 13.5931 5.97878 12.941L5.51683 12.7497C5.22149 13.4629 5.07056 14.2275 5.07278 14.9995L5.57278 14.998ZM10.9478 16.625C9.25598 16.625 7.88075 16.351 6.93688 15.9902C6.46382 15.8094 6.10877 15.6105 5.87703 15.4211C5.63439 15.2228 5.57278 15.074 5.57278 14.9987H5.07278C5.07278 15.3059 5.28508 15.583 5.56061 15.8082C5.84703 16.0423 6.25441 16.2646 6.75837 16.4573C7.76857 16.8434 9.20583 17.125 10.9478 17.125V16.625ZM16.3228 15C16.3228 15.0751 16.2613 15.2236 16.0186 15.4218C15.7869 15.6111 15.4318 15.8099 14.9587 15.9906C14.0149 16.3511 12.6396 16.625 10.9478 16.625V17.125C12.6897 17.125 14.127 16.8435 15.1371 16.4577C15.6411 16.2652 16.0485 16.043 16.3349 15.8091C16.6104 15.584 16.8228 15.3071 16.8228 15H16.3228ZM15.9113 12.9289C16.185 13.5847 16.3249 14.2886 16.3228 14.9993L16.8228 15.0007C16.8251 14.2235 16.6721 13.4537 16.3728 12.7364L15.9113 12.9289ZM14.7293 11.1801C15.2358 11.6785 15.6377 12.2731 15.9113 12.9289L16.3728 12.7364C16.0735 12.0191 15.634 11.3688 15.08 10.8237L14.7293 11.1801ZM14.5345 10.8996C14.5808 11.0061 14.6479 11.1022 14.7318 11.1825L15.0775 10.8212C15.0415 10.7868 15.0128 10.7456 14.9929 10.7L14.5345 10.8996ZM14.4618 10.5624C14.4634 10.6785 14.4881 10.7931 14.5345 10.8996L14.9929 10.7C14.973 10.6544 14.9625 10.6052 14.9618 10.5555L14.4618 10.5624ZM14.5251 10.2233C14.4817 10.331 14.4602 10.4463 14.4618 10.5624L14.9618 10.5555C14.9611 10.5057 14.9703 10.4563 14.9889 10.4102L14.5251 10.2233ZM14.7145 9.93506C14.6329 10.0176 14.5685 10.1156 14.5251 10.2233L14.9889 10.4102C15.0075 10.364 15.0351 10.322 15.0701 10.2866L14.7145 9.93506ZM15.0006 9.7424C14.8934 9.787 14.7962 9.85249 14.7145 9.93506L15.0701 10.2866C15.1051 10.2512 15.1467 10.2232 15.1927 10.204L15.0006 9.7424ZM15.339 9.67527C15.2229 9.67498 15.1078 9.69779 15.0006 9.7424L15.1927 10.204C15.2386 10.1849 15.2879 10.1751 15.3377 10.1753L15.339 9.67527ZM15.677 9.74413C15.57 9.69898 15.4551 9.67557 15.339 9.67527L15.3377 10.1753C15.3875 10.1754 15.4367 10.1854 15.4825 10.2048L15.677 9.74413Z" fill="#64AE4D"/>
</svg>
